<?xml version="1.0" encoding="utf-8"?>
<svg width="26px" height="26px" viewbox="0 0 26 26" version="1.1" xmlns:xlink="http://www.w3.org/1999/xlink" xmlns="http://www.w3.org/2000/svg">
  <defs>
    <path d="M0 0L26 0L26 26L0 26L0 0Z" id="path_1" />
    <clipPath id="mask_1">
      <use xlink:href="#path_1" />
    </clipPath>
  </defs>
  <g id="Group-3">
    <path d="M0 0L26 0L26 26L0 26L0 0Z" id="Clip-2" fill="none" fill-rule="evenodd" stroke="none" />
    <g clip-path="url(#mask_1)">
      <path d="M22.5333 6.93333C22.5333 7.36667 22.1875 7.8 21.6667 7.8L19.0667 7.8C18.6333 7.8 18.2 7.45333 18.2 6.93333L18.2 4.33333C18.2 3.81333 18.5467 3.46667 19.0667 3.46667L21.6667 3.46667C22.1875 3.46667 22.5333 3.9 22.5333 4.33333L22.5333 6.93333ZM22.5333 20.8C22.5333 21.7533 21.7542 22.5333 20.8 22.5333L13 22.5333L5.2 22.5333C4.24667 22.5333 3.46667 21.7533 3.46667 20.8L3.46667 10.8333L5.54667 10.8333C5.28753 11.5267 5.2 12.22 5.2 13C5.2 17.3333 8.66667 20.8 13 20.8C17.3333 20.8 20.8 17.3333 20.8 13C20.8 12.22 20.7133 11.5267 20.4542 10.8333L22.5333 10.8333L22.5333 20.8ZM13 8.23333C15.6 8.23333 17.7667 10.4 17.7667 13C17.7667 15.6 15.6 17.7667 13 17.7667C10.4 17.7667 8.23333 15.6 8.23333 13C8.23333 10.4 10.4 8.23333 13 8.23333L13 8.23333ZM3.03333 0C1.38753 0 0 1.38667 0 3.03333L0 22.9667C0 24.6133 1.38753 26 3.03333 26L22.9667 26C24.6133 25.9133 26 24.6133 26 22.9667L26 3.03333C26 1.38667 24.18 0.0866667 22.5333 0L3.03333 0Z" id="Fill-1" fill="#FFFFFF" fill-rule="evenodd" stroke="none" />
    </g>
  </g>
</svg>