<?xml version="1.0" encoding="utf-8"?>
<svg width="31px" height="26px" viewbox="0 0 31 26" version="1.1" xmlns:xlink="http://www.w3.org/1999/xlink" xmlns="http://www.w3.org/2000/svg">
  <defs>
    <path d="M0 0L31 0L31 26L0 26L0 0Z" id="path_1" />
    <clipPath id="mask_1">
      <use xlink:href="#path_1" />
    </clipPath>
  </defs>
  <g id="Group-3">
    <path d="M0 0L31 0L31 26L0 26L0 0Z" id="Clip-2" fill="none" fill-rule="evenodd" stroke="none" />
    <g clip-path="url(#mask_1)">
      <path d="M0 23.296C2.79 25.064 6.71667 26 10.3333 26C22.01 26 27.9 16.744 27.9 8.32L27.9 7.28C29.14 6.344 30.1733 5.096 31 3.848C29.8623 4.368 28.1067 4.992 26.8667 5.2C28.21 4.368 29.45 2.496 29.9667 1.04C28.9333 1.664 27.7956 2.496 26.66 2.912L25.8333 2.08C24.6956 0.832 23.56 0 21.7 0C18.1867 0 15.5 2.704 15.5 6.24C15.5 6.656 15.5 6.968 15.6033 7.28L15.5 7.28C9.3 7.28 5.16667 5.928 2.06667 2.08C1.55 3.016 1.03333 4.056 1.03333 5.2C1.03333 7.384 2.37667 9.256 4.13333 10.4C3.1 10.4 1.86 9.88 1.03333 9.36C1.03333 12.48 5.37333 16.016 8.26667 16.64C7.23333 17.68 3.5123 16.744 3.1 16.64C3.92667 19.136 6.51 20.696 9.3 20.8C7.12897 22.464 4.54563 23.4 1.55 23.4C1.03333 23.4 0.516667 23.4 0 23.296" id="Fill-1" fill="#FFFFFF" fill-rule="evenodd" stroke="none" />
    </g>
  </g>
</svg>